<svg xmlns="http://www.w3.org/2000/svg" width="127" height="38"><path data-name="Path 3602" d="M122.017 37.5H4.914A4.4 4.4 0 01.5 33.122V4.872A4.4 4.4 0 014.914.5h117.1a4.459 4.459 0 014.486 4.372v28.25a4.465 4.465 0 01-4.483 4.378z" fill="rgba(255,255,255,0)" stroke="#070807"/><path data-name="Path 3603" d="M125.602 33.121a3.559 3.559 0 01-3.579 3.542H4.908a3.563 3.563 0 01-3.583-3.542V4.872a3.568 3.568 0 013.583-3.547h117.115a3.563 3.563 0 013.579 3.547v28.249z" fill="none"/><g data-name="Group 911"><g data-name="Group 910"><path data-name="Path 3604" d="M28.436 18.806a5.375 5.375 0 012.56-4.51 5.505 5.505 0 00-4.336-2.344c-1.824-.192-3.593 1.091-4.522 1.091-.948 0-2.378-1.073-3.92-1.041a5.773 5.773 0 00-4.859 2.959c-2.1 3.638-.534 8.983 1.479 11.923 1.007 1.44 2.184 3.048 3.724 2.991 1.507-.062 2.07-.961 3.888-.961 1.8 0 2.33.961 3.9.924 1.617-.026 2.635-1.447 3.607-2.9a11.9 11.9 0 001.65-3.359 5.2 5.2 0 01-3.171-4.773z"/><path data-name="Path 3605" d="M25.469 10.018a5.291 5.291 0 001.211-3.792 5.389 5.389 0 00-3.485 1.8 5.035 5.035 0 00-1.243 3.651 4.452 4.452 0 003.517-1.659z"/></g></g><g data-name="Group 912"><path data-name="Path 3606" d="M51.064 29.622h-2.106l-1.153-3.625h-4.01l-1.1 3.625h-2.049l3.972-12.336h2.453zm-3.607-5.145l-1.043-3.222q-.166-.494-.622-2.325h-.037q-.182.787-.586 2.325l-1.025 3.222z"/><path data-name="Path 3607" d="M61.279 25.063a5.056 5.056 0 01-1.227 3.588 3.587 3.587 0 01-2.728 1.172 2.728 2.728 0 01-2.527-1.263h-.037v4.687h-1.977v-9.594q0-1.427-.073-2.929h1.739l.11 1.41h.037a3.517 3.517 0 015.629-.349 4.9 4.9 0 011.054 3.278zm-2.014.072a3.663 3.663 0 00-.586-2.142 2.024 2.024 0 00-1.721-.879 2.056 2.056 0 00-1.327.485 2.249 2.249 0 00-.778 1.273 2.588 2.588 0 00-.092.6v1.484a2.377 2.377 0 00.6 1.639 1.973 1.973 0 001.547.669 2.024 2.024 0 001.739-.86 3.787 3.787 0 00.618-2.268z"/><path data-name="Path 3608" d="M71.513 25.063a5.053 5.053 0 01-1.227 3.588 3.584 3.584 0 01-2.727 1.172 2.725 2.725 0 01-2.526-1.263h-.037v4.687h-1.978v-9.594q0-1.427-.073-2.929h1.741l.11 1.41h.037a3.518 3.518 0 015.63-.349 4.916 4.916 0 011.05 3.278zm-2.014.072a3.663 3.663 0 00-.587-2.142 2.021 2.021 0 00-1.72-.879 2.058 2.058 0 00-1.328.485 2.248 2.248 0 00-.777 1.273 2.639 2.639 0 00-.092.6v1.484a2.385 2.385 0 00.593 1.639 1.977 1.977 0 001.549.669 2.024 2.024 0 001.739-.86 3.787 3.787 0 00.623-2.268z"/><path data-name="Path 3609" d="M82.955 26.161a3.289 3.289 0 01-1.1 2.563 4.858 4.858 0 01-3.361 1.08 5.884 5.884 0 01-3.2-.769l.458-1.648a5.419 5.419 0 002.858.788 2.7 2.7 0 001.74-.5 1.647 1.647 0 00.621-1.348 1.719 1.719 0 00-.513-1.265 4.767 4.767 0 00-1.7-.954q-3.241-1.208-3.235-3.542a3.131 3.131 0 011.136-2.493 4.478 4.478 0 013.02-.973 5.989 5.989 0 012.8.586l-.494 1.614a4.859 4.859 0 00-2.362-.567 2.39 2.39 0 00-1.628.513 1.465 1.465 0 00-.494 1.117 1.508 1.508 0 00.567 1.208 6.4 6.4 0 001.8.952 6.09 6.09 0 012.343 1.5 3.134 3.134 0 01.744 2.138z"/><path data-name="Path 3610" d="M89.492 22.208h-2.179v4.32q0 1.648 1.154 1.648a3.516 3.516 0 00.878-.092l.055 1.5a4.479 4.479 0 01-1.537.219 2.372 2.372 0 01-1.834-.713 3.507 3.507 0 01-.659-2.4v-4.484h-1.3v-1.484h1.3V19.09l1.942-.586v2.215h2.179v1.485z"/><path data-name="Path 3611" d="M99.323 25.099a4.881 4.881 0 01-1.172 3.369 4.184 4.184 0 01-3.26 1.355 3.979 3.979 0 01-3.12-1.3 4.731 4.731 0 01-1.163-3.277 4.833 4.833 0 011.2-3.386 4.149 4.149 0 013.231-1.319 4.064 4.064 0 013.149 1.3 4.677 4.677 0 011.135 3.258zm-2.051.064a4 4 0 00-.53-2.111 1.953 1.953 0 00-1.775-1.064 1.982 1.982 0 00-1.813 1.064 4.079 4.079 0 00-.53 2.148 4 4 0 00.53 2.11 2.02 2.02 0 003.57-.019 4.017 4.017 0 00.548-2.128z"/><path data-name="Path 3612" d="M105.748 22.462a3.433 3.433 0 00-.623-.055 1.868 1.868 0 00-1.612.788 2.962 2.962 0 00-.494 1.757v4.669h-1.976l.019-6.1q0-1.538-.074-2.8h1.722l.072 1.7h.055a3.043 3.043 0 01.988-1.409 2.39 2.39 0 011.429-.477 3.174 3.174 0 01.494.036v1.885z"/><path data-name="Path 3613" d="M114.591 24.751a4.637 4.637 0 01-.072.9h-5.931a2.581 2.581 0 00.86 2.015 2.938 2.938 0 001.94.622 6.559 6.559 0 002.4-.421l.31 1.372a7.419 7.419 0 01-2.983.55 4.321 4.321 0 01-3.251-1.217 4.5 4.5 0 01-1.18-3.268 5.1 5.1 0 011.1-3.35 3.789 3.789 0 013.111-1.427 3.316 3.316 0 012.912 1.427 4.812 4.812 0 01.784 2.797zm-1.885-.513a2.686 2.686 0 00-.384-1.52 1.727 1.727 0 00-1.575-.824 1.875 1.875 0 00-1.574.806 2.95 2.95 0 00-.585 1.537h4.118z"/></g><g data-name="Group 914"><g data-name="Group 913"><path data-name="Path 3614" d="M41.213 7.225a3.492 3.492 0 01.715-.319 3.029 3.029 0 01.94-.131 2.1 2.1 0 011.375.414 1.367 1.367 0 01.5 1.115 1.356 1.356 0 01-.337.936 1.629 1.629 0 01-.86.5v.027a2.208 2.208 0 01.544.158 1.479 1.479 0 01.45.3 1.416 1.416 0 01.306.441 1.364 1.364 0 01.112.558 1.632 1.632 0 01-.2.846 1.7 1.7 0 01-.53.558 2.228 2.228 0 01-.733.31 3.6 3.6 0 01-.809.095 4.137 4.137 0 01-.855-.09 2.655 2.655 0 01-.783-.3l.243-.746a3.732 3.732 0 00.6.225 2.628 2.628 0 00.746.108 1.467 1.467 0 00.958-.278 1.017 1.017 0 00.2-1.264.987.987 0 00-.351-.32 1.534 1.534 0 00-.481-.161 3.18 3.18 0 00-.526-.045h-.405v-.733h.405a1.749 1.749 0 00.517-.072 1.313 1.313 0 00.414-.2.97.97 0 00.274-.311.837.837 0 00.1-.405.767.767 0 00-.288-.634 1.206 1.206 0 00-.773-.23 2.164 2.164 0 00-.666.108 4.91 4.91 0 00-.594.234z"/><path data-name="Path 3615" d="M48.938 12.936l-.071-.5h-.027a1.483 1.483 0 01-1.277.6 1.42 1.42 0 01-.54-.1 1.33 1.33 0 01-.423-.27 1.191 1.191 0 01-.279-.405 1.306 1.306 0 01-.1-.513 1.347 1.347 0 01.666-1.228 3.623 3.623 0 011.889-.409v-.081q0-.864-.907-.863a2.033 2.033 0 00-1.14.324l-.195-.638a2.776 2.776 0 011.5-.377q1.715 0 1.715 1.808v1.61a6.617 6.617 0 00.063 1.043h-.873zm-.134-2.176a2.728 2.728 0 00-1.212.207.706.706 0 00-.4.675.659.659 0 00.187.513.678.678 0 00.475.171.956.956 0 00.358-.068.973.973 0 00.3-.185.916.916 0 00.211-.284.8.8 0 00.08-.355z"/><path data-name="Path 3616" d="M54.435 8.566v.8h-1.817v3.571h-.971V8.566z"/><path data-name="Path 3617" d="M59.993 10.698a3.011 3.011 0 01-.144.953 2.216 2.216 0 01-.4.737 1.78 1.78 0 01-1.4.648 1.341 1.341 0 01-1.242-.62h-.019v2.3h-.972v-4.711q0-.35-.009-.707a40.472 40.472 0 00-.026-.733h.854l.055.693h.019a1.619 1.619 0 011.475-.783 1.6 1.6 0 01.715.161 1.748 1.748 0 01.571.454 2.172 2.172 0 01.382.7 2.8 2.8 0 01.141.908zm-.988.036a2.218 2.218 0 00-.077-.6 1.369 1.369 0 00-.224-.467 1.1 1.1 0 00-.36-.306 1.007 1.007 0 00-.878-.022 1.1 1.1 0 00-.346.243 1.207 1.207 0 00-.329.828v.729a1.269 1.269 0 00.077.45 1.087 1.087 0 00.215.36.974.974 0 00.333.238 1.034 1.034 0 00.427.085 1 1 0 00.853-.418 1.862 1.862 0 00.308-1.12z"/><path data-name="Path 3618" d="M65.211 8.566l-1.107 3.031a13.6 13.6 0 01-.769 1.767 3.945 3.945 0 01-.715 1 2.152 2.152 0 01-1.071.548l-.234-.818a1.843 1.843 0 00.72-.387 2.148 2.148 0 00.549-.72.551.551 0 00.071-.2.816.816 0 00-.054-.207l-1.583-4.013h1.07l.828 2.438c.043.114.084.243.126.387s.087.3.135.477h.019c.03-.1.063-.217.1-.364s.084-.316.144-.508l.738-2.428h1.035z"/><path data-name="Path 3619" d="M66.894 10.382h.449a1.365 1.365 0 00.764-.18.525.525 0 00.27-.441.5.5 0 00-.23-.431 1.086 1.086 0 00-.634-.162 1.7 1.7 0 00-.525.085 2.763 2.763 0 00-.491.211l-.251-.629a2.689 2.689 0 01.752-.283 3.718 3.718 0 01.75-.077 3.129 3.129 0 01.6.058 1.66 1.66 0 01.534.2 1.15 1.15 0 01.382.364.99.99 0 01.148.558.776.776 0 01-.082.364.943.943 0 01-.215.278 1.163 1.163 0 01-.3.2 1.616 1.616 0 01-.337.113v.027a1.736 1.736 0 01.418.108 1.435 1.435 0 01.364.211 1.055 1.055 0 01.261.314.883.883 0 01.1.418 1.065 1.065 0 01-.188.647 1.354 1.354 0 01-.482.414 2.327 2.327 0 01-.643.221 3.652 3.652 0 01-.682.068 3.8 3.8 0 01-.8-.085 2.513 2.513 0 01-.712-.265l.253-.639a2.586 2.586 0 00.534.211 2.263 2.263 0 00.616.085 1.279 1.279 0 00.76-.193.58.58 0 00.264-.481.545.545 0 00-.089-.319.659.659 0 00-.251-.211 1.233 1.233 0 00-.378-.112 3.194 3.194 0 00-.467-.032h-.458z"/><path data-name="Path 3620" d="M72.082 8.566v1.547c0 .354-.006.672-.019.953s-.027.579-.045.89l.019.018.337-.67c.112-.219.224-.442.338-.67l1.079-2.069h1.259v4.371h-.918v-1.548c0-.324.009-.647.023-.971s.031-.651.049-.981h-.045a6.446 6.446 0 01-.306.7c-.1.2-.2.4-.3.612q-.28.54-.554 1.079t-.58 1.106h-1.263V8.566z"/><path data-name="Path 3621" d="M80.177 8.566v.8h-1.331v3.571h-.955V9.366h-1.322v-.8z"/><path data-name="Path 3622" d="M85.132 10.544c0 .083 0 .163-.009.238a1.625 1.625 0 01-.027.2h-2.914a1.282 1.282 0 00.391.958 1.415 1.415 0 00.985.338 3.262 3.262 0 001.179-.207l.152.675a3.66 3.66 0 01-1.467.27 2.517 2.517 0 01-.916-.158 1.9 1.9 0 01-.684-.445 1.966 1.966 0 01-.427-.693 2.66 2.66 0 01-.146-.908 2.861 2.861 0 01.146-.931 2.292 2.292 0 01.418-.742 1.958 1.958 0 01.652-.5 1.983 1.983 0 01.851-.18 1.854 1.854 0 01.752.148 1.585 1.585 0 01.574.423 1.876 1.876 0 01.364.656 2.661 2.661 0 01.126.858zm-.927-.251a1.317 1.317 0 00-.247-.832.852.852 0 00-.715-.32.936.936 0 00-.719.324 1.371 1.371 0 00-.342.828z"/><path data-name="Path 3623" d="M89.046 8.601c.174-.03.4-.054.665-.072s.545-.027.828-.027c.179 0 .382.011.606.032a2.492 2.492 0 01.643.144 1.281 1.281 0 01.513.338.867.867 0 01.209.611.849.849 0 01-.072.355.9.9 0 01-.194.274 1.07 1.07 0 01-.279.193 1.36 1.36 0 01-.328.112l.009.027a1.528 1.528 0 01.773.342.91.91 0 01.3.72 1.034 1.034 0 01-.251.729 1.577 1.577 0 01-.621.405 3.038 3.038 0 01-.779.172 8.828 8.828 0 01-.732.036c-.241 0-.477-.006-.707-.019s-.424-.024-.58-.036zm.935 1.745h.494a2.733 2.733 0 00.427-.032 1.41 1.41 0 00.355-.1.6.6 0 00.239-.18.442.442 0 00.085-.274.463.463 0 00-.248-.436 1.651 1.651 0 00-.777-.139c-.1 0-.19 0-.266.009l-.31.027v1.13zm0 1.933c.12.012.221.02.3.027s.175.009.285.009a3.02 3.02 0 00.4-.027 1.344 1.344 0 00.378-.1.7.7 0 00.274-.206.538.538 0 00.1-.344.52.52 0 00-.333-.518 2.322 2.322 0 00-.9-.143h-.513v1.3z"/></g></g></svg>