<svg xmlns="http://www.w3.org/2000/svg" width="126" height="37"><g data-name="Group 915"><path data-name="Path 3624" d="M121.333 37H4.667A4.6 4.6 0 010 32.375V4.625A4.6 4.6 0 014.667 0h116.666A4.6 4.6 0 01126 4.625v27.75A4.6 4.6 0 01121.333 37z" fill="none"/></g><g data-name="Group 917"><g data-name="Group 916"><path data-name="Path 3625" d="M121.333.74a3.926 3.926 0 013.92 3.885v27.75a3.926 3.926 0 01-3.92 3.885H4.667a3.926 3.926 0 01-3.92-3.885V4.625A3.926 3.926 0 014.667.74h116.666m0-.74H4.667A4.659 4.659 0 000 4.625v27.75A4.6 4.6 0 004.667 37h116.666A4.6 4.6 0 00126 32.375V4.625A4.659 4.659 0 00121.333 0z"/></g></g><path data-name="Path 3626" d="M63.968 20.124a3.9 3.9 0 00-3.987 3.987 3.958 3.958 0 003.987 3.987 3.9 3.9 0 003.987-3.987 3.847 3.847 0 00-3.987-3.987zm0 6.305a2.419 2.419 0 010-4.822 2.246 2.246 0 012.225 2.411 2.3 2.3 0 01-2.225 2.411zm-8.623-6.305a3.9 3.9 0 00-3.987 3.987 3.958 3.958 0 003.987 3.987 3.9 3.9 0 003.987-3.987 3.847 3.847 0 00-3.988-3.987zm0 6.305a2.419 2.419 0 010-4.822 2.246 2.246 0 012.225 2.411 2.3 2.3 0 01-2.226 2.411zm-10.292-5.1v1.669h3.987a3.506 3.506 0 01-.927 2.133 4.1 4.1 0 01-3.06 1.205 4.317 4.317 0 01-4.358-4.451 4.374 4.374 0 014.358-4.451 4.6 4.6 0 013.06 1.205l1.205-1.205a5.942 5.942 0 00-4.173-1.668 6.255 6.255 0 00-6.213 6.12 6.255 6.255 0 006.213 6.12 5.336 5.336 0 004.265-1.762 5.582 5.582 0 001.484-3.894 3.477 3.477 0 00-.093-1.02zm42.1 1.3a3.6 3.6 0 00-3.338-2.5 3.735 3.735 0 00-3.709 3.987A3.88 3.88 0 0084 28.103a3.8 3.8 0 003.245-1.762l-1.3-.927a2.26 2.26 0 01-1.947 1.113 2.012 2.012 0 01-1.947-1.205l5.281-2.231zm-5.378 1.3a2.253 2.253 0 012.04-2.318 1.64 1.64 0 011.484.835zm-4.358 3.8h1.762V16.137h-1.766zm-2.785-6.77a3.053 3.053 0 00-2.133-.927 3.984 3.984 0 00-3.8 3.987 3.839 3.839 0 003.8 3.894 2.662 2.662 0 002.04-.927h.093v.556a2.108 2.108 0 01-4.08.927l-1.484.649a3.825 3.825 0 003.524 2.318c2.04 0 3.709-1.205 3.709-4.08V20.31h-1.669v.649zm-2.04 5.471a2.419 2.419 0 010-4.822 2.231 2.231 0 012.133 2.411 2.231 2.231 0 01-2.134 2.41zm22.624-10.293h-4.173v11.59h1.762v-4.361h2.411a3.621 3.621 0 100-7.233zm.093 5.563h-2.5v-3.987h2.5a2.037 2.037 0 012.04 1.947 2.122 2.122 0 01-2.04 2.04zm10.663-1.669a3.117 3.117 0 00-3.06 1.762l1.576.649a1.638 1.638 0 011.576-.835 1.743 1.743 0 011.854 1.484v.093a3.678 3.678 0 00-1.762-.464c-1.669 0-3.338.927-3.338 2.6a2.716 2.716 0 002.874 2.6 2.609 2.609 0 002.225-1.113h.093v.927h1.669v-4.457a3.509 3.509 0 00-3.707-3.246zm-.185 6.4c-.556 0-1.391-.278-1.391-1.02 0-.927 1.02-1.205 1.854-1.205a3.586 3.586 0 011.576.371 2.16 2.16 0 01-2.039 1.852zm9.736-6.12l-1.947 5.007h-.093l-2.04-5.007h-1.854l3.06 7.047-1.762 3.894h1.762l4.729-10.942zm-15.578 7.418h1.762V16.137h-1.762z"/><g data-name="Group 919"><path data-name="Path 3627" d="M9.643 6.909a1.813 1.813 0 00-.371 1.3v20.49a1.834 1.834 0 00.464 1.3l.093.093 11.5-11.5v-.183L9.643 6.909z"/><path data-name="Path 3628" d="M25.033 22.487l-3.8-3.8v-.282l3.8-3.8.093.093 4.544 2.6c1.3.742 1.3 1.947 0 2.689l-4.636 2.5z"/><path data-name="Path 3629" d="M25.128 22.394L21.234 18.5 9.643 30.091c.464.464 1.113.464 1.947.093l13.538-7.789"/><path data-name="Path 3630" d="M25.128 14.605l-13.538-7.7a1.5 1.5 0 00-1.947.093l11.591 11.5z"/><g data-name="Group 918"><path data-name="Path 3631" d="M25.035 22.301l-13.445 7.6a1.516 1.516 0 01-1.854 0l-.093.1.093.093a1.516 1.516 0 001.854 0l13.445-7.793z" opacity=".2"/><path data-name="Path 3632" d="M9.643 29.906a1.813 1.813 0 01-.371-1.3v.093a1.834 1.834 0 00.464 1.3v-.093z" opacity=".12"/></g><path data-name="Path 3633" d="M29.671 19.705L25.035 22.3l.093.093 4.544-2.6a1.541 1.541 0 00.927-1.3c-.001.471-.371.842-.928 1.212z" opacity=".12"/><path data-name="Path 3634" d="M11.59 7.002l18.082 10.292c.556.371.927.742.927 1.205a1.541 1.541 0 00-.927-1.3L11.59 6.909c-1.298-.741-2.318-.185-2.318 1.298V8.3c0-1.391 1.02-2.04 2.318-1.298z" opacity=".25"/></g><g data-name="Group 920"><path data-name="Path 3635" d="M39.461 13.241h-.649v-1.855h.556a2.677 2.677 0 00.744-2.132V6.472h3.709v4.914h.649v1.854h-.649v-1.205h-4.267v1.205zm1.3-3.987a3.841 3.841 0 01-.556 2.133h2.782V7.121h-2.321v2.133z"/><path data-name="Path 3636" d="M49.939 11.293a2.875 2.875 0 01-4.914-2.04 2.875 2.875 0 115.749 0 2.726 2.726 0 01-.835 2.04zm-3.524-.464a2.188 2.188 0 001.484.65 1.845 1.845 0 001.484-.649 2.237 2.237 0 00.649-1.576 1.91 1.91 0 00-.649-1.575 2.188 2.188 0 00-1.484-.649 1.845 1.845 0 00-1.484.649 2.237 2.237 0 00-.649 1.576 1.91 1.91 0 00.65 1.575z"/><path data-name="Path 3637" d="M54.389 12.128a2.85 2.85 0 01-2.874-2.875 2.85 2.85 0 012.874-2.874 2.5 2.5 0 012.04.927l-.464.464a1.981 1.981 0 00-1.576-.742 2.034 2.034 0 00-1.574.651 1.91 1.91 0 00-.649 1.576 1.91 1.91 0 00.649 1.576 2.237 2.237 0 001.574.648 2.106 2.106 0 001.669-.835l.464.464a3.63 3.63 0 01-.927.742 2.567 2.567 0 01-1.206.278z"/><path data-name="Path 3638" d="M59.489 12.035h-.742V7.121h-1.576v-.649h3.8v.649h-1.575v4.914z"/><path data-name="Path 3639" d="M65.888 6.472l-2.133 4.729a1.452 1.452 0 01-1.3 1.02 1.176 1.176 0 01-.556-.093l.185-.649a.557.557 0 00.371.093c.185 0 .278 0 .371-.093a1.28 1.28 0 00.278-.371l.185-.464-1.852-4.079h.835l1.391 3.153 1.39-3.246z"/><path data-name="Path 3640" d="M66.722 12.035V6.472h3.987v5.563h-.742V7.121h-2.6v4.914z"/><path data-name="Path 3641" d="M72.007 12.035V6.472h.742v2.411h2.782V6.472h.742v5.563h-.742v-2.5h-2.782v2.5z"/><path data-name="Path 3642" d="M82.114 11.293a2.875 2.875 0 01-4.914-2.04 2.875 2.875 0 115.749 0 3.688 3.688 0 01-.835 2.04zM78.5 10.83a2.188 2.188 0 001.482.649 1.845 1.845 0 001.484-.649 2.237 2.237 0 00.649-1.576 1.91 1.91 0 00-.65-1.575 2.188 2.188 0 00-1.484-.649 1.845 1.845 0 00-1.481.649 2.239 2.239 0 000 3.153z"/><path data-name="Path 3643" d="M85.823 12.035V6.472h2.04a1.536 1.536 0 011.113.464 1.489 1.489 0 01.464 1.02 2.182 2.182 0 01-.185.742.95.95 0 01-.556.464 1.663 1.663 0 01.649.464 1.133 1.133 0 01.278.835 1.536 1.536 0 01-.464 1.113 1.953 1.953 0 01-1.205.464zm.742-3.153h1.3a.842.842 0 00.649-.278.8.8 0 00.278-.556 1.963 1.963 0 00-.278-.649.842.842 0 00-.649-.278h-1.3zm0 2.5h1.484a.951.951 0 00.927-.927 1 1 0 00-.278-.649.842.842 0 00-.649-.278h-1.391v1.854z"/></g></svg>